<svg width="30" height="30" viewBox="0 0 30 30" fill="none" xmlns="http://www.w3.org/2000/svg">
<path d="M21.0916 14C19.1563 14 18.8885 15.9286 18.8885 15.9286H23.0001C23.0001 15.9286 23.0269 14 21.0916 14ZM11.7635 15.9286H8.12061V19.2768H11.5827C12.105 19.2634 13.0827 19.1161 13.0827 17.6496C13.0827 15.9085 11.7635 15.9286 11.7635 15.9286Z" fill="#ECE8F4"/>
<path d="M15 0C6.71652 0 0 6.71652 0 15C0 23.2835 6.71652 30 15 30C23.2835 30 30 23.2835 30 15C30 6.71652 23.2835 0 15 0ZM18.1607 9.21429H23.3237V10.7545H18.1607V9.21429ZM15.5491 17.3036C15.5491 21.1205 11.5714 21 11.5714 21H5.0625V8.47768H11.5714C13.5536 8.47768 15.1138 9.5692 15.1138 11.8125C15.1138 14.0558 13.2054 14.1964 13.2054 14.1964C15.7232 14.1964 15.5491 17.3036 15.5491 17.3036ZM25.2054 17.096H18.7165C18.7165 19.4196 20.9196 19.2723 20.9196 19.2723C23.0022 19.2723 22.9286 17.9263 22.9286 17.9263H25.1317C25.1317 21.5022 20.846 21.2545 20.846 21.2545C15.7098 21.2545 16.0379 16.4665 16.0379 16.4665C16.0379 16.4665 16.0312 11.6585 20.846 11.6585C25.9152 11.6652 25.2054 17.096 25.2054 17.096Z" fill="#ECE8F4"/>
<path d="M12.6474 12.2991C12.6474 11 11.7635 11 11.7635 11H8.12061V13.7924H11.5358C12.1251 13.7924 12.6474 13.5982 12.6474 12.2991Z" fill="#ECE8F4"/>
</svg>
