<svg width="30" height="31" viewBox="0 0 30 31" fill="none" xmlns="http://www.w3.org/2000/svg">
<path d="M14.9993 10.5067C12.2352 10.5067 10.0067 12.7566 10.0067 15.4993C10.0067 18.2421 12.2566 20.492 14.9993 20.492C17.7421 20.492 19.992 18.2421 19.992 15.4993C19.992 12.7566 17.7421 10.5067 14.9993 10.5067ZM29.9987 15.4993C29.9987 13.4209 29.9987 11.3852 29.8915 9.30675C29.7844 6.90686 29.2273 4.7641 27.4702 3.02846C25.7131 1.27139 23.5918 0.714276 21.1919 0.607138C19.1134 0.5 17.0778 0.5 14.9993 0.5C12.9209 0.5 10.8852 0.5 8.80675 0.607138C6.40686 0.714276 4.2641 1.27139 2.52846 3.02846C0.771394 4.78552 0.214276 6.90686 0.107138 9.30675C-1.03771e-07 11.3852 0 13.4209 0 15.4993C0 17.5778 -1.03771e-07 19.6134 0.107138 21.6919C0.214276 24.0918 0.771394 26.2346 2.52846 27.9702C4.28552 29.7273 6.40686 30.2844 8.80675 30.3915C10.8852 30.4987 12.9209 30.4987 14.9993 30.4987C17.0778 30.4987 19.1134 30.4987 21.1919 30.3915C23.5918 30.2844 25.7346 29.7273 27.4702 27.9702C29.2273 26.2131 29.7844 24.0918 29.8915 21.6919C30.0201 19.6349 29.9987 17.5778 29.9987 15.4993ZM14.9993 23.1918C10.7352 23.1918 7.30682 19.7634 7.30682 15.4993C7.30682 11.2352 10.7352 7.80682 14.9993 7.80682C19.2634 7.80682 22.6918 11.2352 22.6918 15.4993C22.6918 19.7634 19.2634 23.1918 14.9993 23.1918ZM23.0133 9.28532C22.0276 9.28532 21.2133 8.4925 21.2133 7.4854C21.2133 6.4783 22.0062 5.68548 23.0133 5.68548C24.0204 5.68548 24.8132 6.4783 24.8132 7.4854C24.8186 7.72011 24.7758 7.95343 24.6873 8.1709C24.5988 8.38837 24.4666 8.58535 24.2989 8.74963C24.1346 8.91735 23.9377 9.04954 23.7202 9.13801C23.5027 9.22647 23.2694 9.26932 23.0347 9.2639L23.0133 9.28532Z" fill="#ECE8F4"/>
</svg>
