<svg width="30" height="31" viewBox="0 0 30 31" fill="none" xmlns="http://www.w3.org/2000/svg">
<path d="M27.7869 0.500114H2.21311C1.63286 0.494208 1.07397 0.718731 0.659063 1.12442C0.244158 1.5301 0.00713392 2.08381 0 2.66405V28.3411C0.00842406 28.9205 0.246015 29.4729 0.66078 29.8776C1.07554 30.2822 1.6337 30.506 2.21311 30.5001H27.7869C28.3672 30.5047 28.9257 30.2794 29.3404 29.8735C29.7551 29.4676 29.9922 28.914 30 28.3337V2.65667C29.9897 2.07814 29.7514 1.52706 29.337 1.12324C28.9225 0.71942 28.3655 0.495485 27.7869 0.500114ZM8.89426 26.0739H4.44098V11.7452H8.89426V26.0739ZM6.68115 9.79274C6.17038 9.79322 5.67094 9.64221 5.24601 9.35879C4.82109 9.07538 4.48977 8.6723 4.29397 8.20055C4.09817 7.7288 4.04669 7.20958 4.14603 6.70856C4.24538 6.20755 4.4911 5.74725 4.85209 5.38591C5.21309 5.02457 5.67315 4.77842 6.17407 4.6786C6.67499 4.57877 7.19426 4.62976 7.6662 4.82511C8.13813 5.02046 8.54152 5.35139 8.82534 5.77605C9.10916 6.20071 9.26066 6.7 9.26066 7.21077C9.26001 7.55025 9.19243 7.88628 9.06177 8.19961C8.93111 8.51294 8.73994 8.79743 8.4992 9.0368C8.25846 9.27617 7.97289 9.46571 7.65881 9.59458C7.34474 9.72344 7.00834 9.78911 6.66885 9.78782L6.68115 9.79274ZM25.5738 26.0739H21.1205V19.1026C21.1205 17.4427 21.091 15.3059 18.8066 15.3059C16.5221 15.3059 16.1336 17.1157 16.1336 18.9944V26.0739H11.6877V11.7452H15.9566V13.7124H16.0156C16.6107 12.5862 18.0615 11.3985 20.2279 11.3985C24.7377 11.3886 25.5738 14.3567 25.5738 18.205V26.0739Z" fill="#ECE8F4"/>
</svg>
