<svg width="30" height="31" viewBox="0 0 30 31" fill="none" xmlns="http://www.w3.org/2000/svg">
<path d="M25.8077 5.61208C25.8447 5.58808 25.8759 5.55623 25.8991 5.5188C25.9224 5.48136 25.9371 5.43927 25.9422 5.3955C25.9474 5.35174 25.9428 5.30737 25.9289 5.26557C25.9149 5.22377 25.8919 5.18556 25.8615 5.15364C24.4621 3.68099 22.7774 2.50887 20.9101 1.70878C19.0428 0.908691 17.032 0.497405 15.0005 0.500012C13.8667 0.500012 12.7622 0.62616 11.7007 0.864611C11.651 0.875923 11.6049 0.899655 11.5669 0.933589C11.5288 0.967522 11.5 1.01055 11.4831 1.05865C11.4662 1.10674 11.4618 1.15834 11.4702 1.20862C11.4787 1.25889 11.4997 1.3062 11.5314 1.34613C13.583 3.99625 15.4269 6.80087 17.0466 9.73497C17.0824 9.79936 17.1402 9.84874 17.2093 9.87415C17.2785 9.89956 17.3545 9.8993 17.4235 9.87342C20.3681 8.76954 23.1803 7.34023 25.8077 5.61208ZM0.6581 12.5148C0.614028 12.5132 0.570855 12.5019 0.531657 12.4817C0.492459 12.4615 0.458199 12.4329 0.431316 12.3979C0.404434 12.363 0.385592 12.3225 0.37613 12.2794C0.366668 12.2363 0.366819 12.1917 0.376574 12.1487C0.890826 9.91335 1.90988 7.82535 3.35567 6.04463C4.80147 4.26392 6.63565 2.83774 8.71772 1.87533C8.77918 1.84713 8.8483 1.8403 8.91408 1.85591C8.97987 1.87152 9.03855 1.90868 9.08078 1.96148C11.2004 4.61035 13.1019 7.42661 14.7667 10.3826C14.8621 10.5519 14.7744 10.7672 14.5867 10.8241C10.07 12.1578 5.36272 12.7282 0.6581 12.5148ZM3.9241 25.0619C3.89623 25.0976 3.86077 25.1265 3.8203 25.1468C3.77984 25.167 3.73538 25.1779 3.69015 25.1788C3.64493 25.1797 3.60007 25.1705 3.55885 25.1519C3.51762 25.1332 3.48106 25.1057 3.45182 25.0712C1.12953 22.2782 -0.0955401 18.7348 0.00582222 15.1039C0.00738564 15.0634 0.0170385 15.0236 0.0342136 14.9868C0.0513888 14.95 0.0757399 14.917 0.105836 14.8898C0.135933 14.8626 0.171168 14.8416 0.209471 14.8282C0.247774 14.8148 0.288374 14.8092 0.328884 14.8117C1.06423 14.8455 1.80574 14.864 2.54878 14.864C7.16395 14.864 11.6145 14.1655 15.8035 12.8671C15.8729 12.8454 15.9477 12.8489 16.0148 12.8771C16.0818 12.9052 16.1367 12.9562 16.1697 13.021C16.6435 13.964 17.0927 14.9209 17.5189 15.8885C17.5367 15.9295 17.5455 15.9739 17.5446 16.0187C17.5436 16.0634 17.533 16.1074 17.5134 16.1476C17.4938 16.1878 17.4657 16.2233 17.4311 16.2516C17.3964 16.28 17.356 16.3004 17.3127 16.3116C12.0317 17.7277 7.34089 20.7934 3.9241 25.0619ZM21.5725 28.7325C21.586 28.7987 21.577 28.8676 21.5469 28.928C21.5168 28.9885 21.4673 29.0372 21.4064 29.0664C19.4036 30.0127 17.2156 30.5019 15.0005 30.4986C11.5706 30.5036 8.2434 29.3281 5.57787 27.1695C5.51678 27.1198 5.47771 27.0481 5.46907 26.9698C5.46044 26.8915 5.48294 26.8129 5.53172 26.7511C8.73667 22.6343 13.2282 19.7096 18.2896 18.4438C18.3614 18.4257 18.4373 18.4344 18.503 18.4684C18.5688 18.5025 18.6198 18.5593 18.6465 18.6284C19.9052 21.9079 20.884 25.288 21.5725 28.7325ZM29.4214 18.4007C29.4976 18.419 29.5637 18.4665 29.6054 18.5329C29.6471 18.5993 29.6611 18.6794 29.6444 18.7561C28.8755 22.2099 26.9107 25.2809 24.097 27.4265C24.0564 27.4571 24.0087 27.4769 23.9583 27.4842C23.908 27.4914 23.8566 27.4858 23.809 27.4678C23.7614 27.4499 23.7191 27.4201 23.6861 27.3814C23.653 27.3427 23.6304 27.2963 23.6201 27.2465C22.9614 24.2114 22.0842 21.2279 20.9956 18.3192C20.9792 18.2759 20.9728 18.2294 20.977 18.1833C20.9812 18.1371 20.9959 18.0926 21.0199 18.053C21.044 18.0133 21.0767 17.9797 21.1157 17.9547C21.1547 17.9297 21.1988 17.9138 21.2448 17.9084C23.9782 17.5946 26.7454 17.7612 29.4214 18.4007ZM27.2661 7.41507C27.2997 7.39245 27.3375 7.37676 27.3772 7.36892C27.417 7.36108 27.4579 7.36125 27.4976 7.36941C27.5373 7.37758 27.5749 7.39358 27.6083 7.41648C27.6418 7.43937 27.6703 7.46871 27.6922 7.50276C29.2566 9.97883 30.058 12.8603 29.9967 15.7885C29.9954 15.8339 29.984 15.8783 29.9634 15.9187C29.9428 15.9591 29.9135 15.9944 29.8776 16.0221C29.8417 16.0497 29.8 16.0691 29.7557 16.0787C29.7114 16.0884 29.6655 16.088 29.6214 16.0777C26.5327 15.3818 23.3424 15.2593 20.2095 15.7162C20.1417 15.7262 20.0726 15.7135 20.0127 15.6801C19.9529 15.6468 19.9058 15.5945 19.8787 15.5316C19.4169 14.4522 18.9255 13.3857 18.405 12.3333C18.3861 12.2946 18.3755 12.2524 18.3738 12.2094C18.3721 12.1664 18.3794 12.1235 18.3951 12.0834C18.4109 12.0433 18.4348 12.007 18.4654 11.9766C18.4959 11.9463 18.5325 11.9226 18.5726 11.9072C21.6494 10.7242 24.5631 9.21345 27.2661 7.41507Z" fill="#ECE8F4"/>
</svg>
