<svg width="30" height="31" viewBox="0 0 30 31" fill="none" xmlns="http://www.w3.org/2000/svg">
<path d="M15 0.5C6.71652 0.5 0 7.21652 0 15.5C0 23.7835 6.71652 30.5 15 30.5C23.2835 30.5 30 23.7835 30 15.5C30 7.21652 23.2835 0.5 15 0.5ZM18.1607 9.71429H23.3237V11.2545H18.1607V9.71429ZM15.5491 17.8036C15.5491 21.6205 11.5714 21.5 11.5714 21.5H5.0625V8.97768H11.5714C13.5536 8.97768 15.1138 10.0692 15.1138 12.3125C15.1138 14.5558 13.2054 14.6964 13.2054 14.6964C15.7232 14.6964 15.5491 17.8036 15.5491 17.8036ZM25.2054 17.596H18.7165C18.7165 19.9196 20.9196 19.7723 20.9196 19.7723C23.0022 19.7723 22.9286 18.4263 22.9286 18.4263H25.1317C25.1317 22.0022 20.846 21.7545 20.846 21.7545C15.7098 21.7545 16.0379 16.9665 16.0379 16.9665C16.0379 16.9665 16.0312 12.1585 20.846 12.1585C25.9152 12.1652 25.2054 17.596 25.2054 17.596Z" fill="#ECE8F4"/>
</svg>
